General
Complete name                            : The Man Who Will Come [2011] DVDRip XviD - CODY.avi
Format                                   : AVI
Format/Info                              : Audio Video Interleave
Format profile                           : OpenDML
Format settings                          : rec
File size                                : 1.00 GiB
Duration                                 : 1h 54mn
Overall bit rate                         : 1 253 Kbps
Writing application                      : AVI-Mux GUI 1.17.8.3, Feb 16 201019:42:50

Video
ID                                       : 0
Format                                   : MPEG-4 Visual
Format profile                           : Advanced Simple@L5
Format settings, BVOP                    : 4
Format settings, QPel                    : No
Format settings, GMC                     : No warppoints
Format settings, Matrix                  : Default (H.263)
Codec ID                                 : XVID
Codec ID/Hint                            : XviD
Duration                                 : 1h 54mn
Bit rate                                 : 1 116 Kbps
Width                                    : 720 pixels
Height                                   : 408 pixels
Display aspect ratio                     : 16:9
Frame rate                               : 25.000 fps
Color space                              : YUV
Chroma subsampling                       : 4:2:0
Bit depth                                : 8 bits
Scan type                                : Progressive
Compression mode                         : Lossy
Bits/(Pixel*Frame)                       : 0.152
Stream size                              : 914 MiB (89%)
Writing library                          : XviD 65

Audio
ID                                       : 1
Format                                   : MPEG Audio
Format version                           : Version 1
Format profile                           : Layer 3
Codec ID                                 : 55
Codec ID/Hint                            : MP3
Duration                                 : 1h 54mn
Bit rate mode                            : Constant
Bit rate                                 : 128 Kbps
Channel(s)                               : 2 channels
Sampling rate                            : 48.0 KHz
Compression mode                         : Lossy
Stream size                              : 105 MiB (10%)
Alignment                                : Aligned on interleaves
Interleave, duration                     : 24 ms (0.60 video frame)
Interleave, preload duration             : 624 ms
Writing library                          : LAME3.99r
Encoding settings                        : -m s -V 4 -q 2 -lowpass 17 -b 128


Audio language                           : Italian, German, Latin


IMDB link:                                 http://www.imdb.com/title/tt1351672/


Subtitles included                       : English, Romanian


Please seed at least 1,5:1. This way this torrent has a chance to survive!


Thanks. Enjoy! 				             					